<svg xmlns="http://www.w3.org/2000/svg" width="64" height="64" viewBox="0 0 64 64">
  <rect width="64" height="64" rx="12" fill="#c2410c"/>
  <g transform="translate(10 10) scale(1.833)" fill="none" stroke="#ffffff" stroke-width="2.2" stroke-linecap="round" stroke-linejoin="round">
    <path d="M20.2 20.2c2.04-2.03.02-7.36-4.5-11.9-4.54-4.52-9.87-6.54-11.9-4.5-2.04 2.03-.02 7.36 4.5 11.9 4.54 4.52 9.87 6.54 11.9 4.5Z"/>
    <path d="M15.7 15.7c4.52-4.54 6.54-9.87 4.5-11.9-2.03-2.04-7.36-.02-11.9 4.5-4.52 4.54-6.54 9.87-4.5 11.9 2.03 2.04 7.36.02 11.9-4.5Z"/>
  </g>
  <circle cx="32" cy="32" r="3" fill="#ffffff"/>
</svg>
